<?xml version="1.0" encoding="utf-8"?>
<!-- Generator: Adobe Illustrator 22.1.0, SVG Export Plug-In . SVG Version: 6.00 Build 0)  -->
<svg version="1.1" id="Слой_1" xmlns="http://www.w3.org/2000/svg" xmlns:xlink="http://www.w3.org/1999/xlink" x="0px" y="0px"
	 viewBox="0 0 524 467" style="enable-background:new 0 0 524 467;" xml:space="preserve">
<style type="text/css">
	.st0{fill:#A0B0C0;}
</style>
<path class="st0" d="M225.6,451.7c-28,0-50.7-22.8-50.7-50.7s22.8-50.7,50.7-50.7c28,0,50.7,22.8,50.7,50.7S253.5,451.7,225.6,451.7
	z M225.6,366.7c-18.9,0-34.2,15.4-34.2,34.3c0,18.9,15.4,34.3,34.2,34.3s34.2-15.4,34.2-34.3C259.8,382.1,244.4,366.7,225.6,366.7z
	 M225.6,285.6c-8.9,0-17.7-2.3-25.4-6.8c-15.6-9.1-25.4-26-25.4-44c0-18.1,9.7-35,25.4-44c7.7-4.4,16.5-6.8,25.4-6.8
	c8.9,0,17.7,2.3,25.4,6.8c15.7,9.1,25.4,26,25.4,44c0,18.1-9.7,35-25.4,44C243.2,283.3,234.4,285.6,225.6,285.6z M225.6,119.3
	c-28,0-50.7-22.8-50.7-50.7s22.8-50.7,50.7-50.7c28,0,50.7,22.8,50.7,50.7S253.5,119.3,225.6,119.3z M225.6,34.3
	c-18.9,0-34.2,15.4-34.2,34.3c0,18.9,15.4,34.3,34.2,34.3s34.2-15.4,34.2-34.3C259.8,49.7,244.4,34.3,225.6,34.3z M81.6,368.6
	c-18.1,0-34.9-9.7-44-25.4c-13.9-24.2-5.6-55.3,18.6-69.3c7.7-4.5,16.5-6.8,25.4-6.8c18.1,0,34.9,9.7,44,25.4
	c13.9,24.2,5.6,55.3-18.6,69.3C99.2,366.3,90.5,368.6,81.6,368.6z M81.6,283.6c-6,0-11.9,1.6-17,4.7c-7.9,4.5-13.6,11.9-16,20.8
	c-2.4,8.7-1.1,18.2,3.4,26c3.1,5.3,7.5,9.7,12.8,12.7c5.2,2.9,11.1,4.4,16.9,4.4c6,0,11.9-1.6,17.1-4.6c16.4-9.5,22-30.5,12.5-46.8
	c-3.1-5.3-7.5-9.7-12.8-12.7C93.4,285.1,87.5,283.6,81.6,283.6L81.6,283.6z M134.1,295c-1.2,0-2.3-0.6-2.9-1.7l-3.4-6.1
	c-0.5-0.8-0.6-1.7-0.3-2.7c0.2-0.8,0.8-1.5,1.5-1.9L170,259c0.5-0.3,1-0.5,1.6-0.5c0.3,0,0.7,0.1,1,0.2c0.8,0.2,1.5,0.8,1.9,1.5
	l3.5,6.1c0.5,0.8,0.6,1.8,0.3,2.7c-0.3,0.9-0.8,1.5-1.5,1.9l-41.1,23.6C135.2,294.9,134.6,295,134.1,295z M225.5,285.6
	c-8.9,0-17.7-2.3-25.4-6.8c-15.6-9.1-25.4-26-25.4-44c0-18.1,9.7-35,25.4-44c7.7-4.4,16.5-6.8,25.4-6.8c8.9,0,17.6,2.3,25.3,6.8
	c15.6,9.1,25.4,26,25.4,44c0,18.1-9.7,35-25.4,44C243.1,283.2,234.4,285.6,225.5,285.6z M279.3,211.2c-0.3,0-0.6,0-0.9-0.1
	c-0.8-0.2-1.5-0.7-2-1.5l-3.5-6.2c-0.5-0.8-0.6-1.8-0.3-2.7c0.3-0.9,0.8-1.5,1.5-1.9l41.1-23.6c0.5-0.3,1.1-0.5,1.7-0.5
	c0.3,0,0.7,0.1,1,0.2c0.9,0.3,1.5,0.8,1.9,1.5l3.5,6.2c0.5,0.8,0.6,1.7,0.3,2.7c-0.2,0.8-0.8,1.5-1.5,1.9L281,210.7
	C280.5,211,279.9,211.2,279.3,211.2z M369.4,202.5c-18.1,0-34.9-9.7-44-25.4c-13.9-24.2-5.6-55.3,18.6-69.3
	c7.7-4.5,16.5-6.8,25.4-6.8c18.1,0,35,9.7,44,25.4c13.9,24.2,5.6,55.3-18.6,69.3C387.1,200.1,378.3,202.5,369.4,202.5z M369.4,117.4
	c-5.9,0-11.9,1.6-17.2,4.5c-16.3,9.5-22,30.5-12.5,46.8c3.1,5.3,7.5,9.7,12.8,12.7c5.2,2.9,11,4.4,17,4.4c6,0,11.9-1.6,17.1-4.6
	c7.9-4.5,13.6-11.8,16-20.8c2.4-8.7,1.1-18.2-3.4-26c-3.1-5.3-7.5-9.7-12.8-12.7C381.2,119,375.3,117.4,369.4,117.4z M172.3,377.7
	c-0.6,0-1.2-0.1-1.7-0.4l-41-23.8c-0.8-0.5-1.4-1.3-1.6-2.1c-0.2-1-0.1-1.8,0.4-2.5l3.5-6c0.5-0.8,1.3-1.4,2.1-1.6
	c0.3-0.1,0.6-0.1,0.9-0.1c0.6,0,1.2,0.1,1.7,0.4l41,23.8c0.8,0.5,1.4,1.3,1.6,2.1c0.2,1,0.1,1.8-0.4,2.5l-3.5,6
	c-0.5,0.8-1.3,1.4-2.1,1.6C172.8,377.7,172.5,377.7,172.3,377.7z M225.5,285.6c-8.8,0-17.6-2.4-25.3-6.8
	c-11.7-6.7-20.1-17.7-23.6-30.8c-3.5-13.1-1.7-26.8,5-38.5c9.1-15.7,26-25.4,44.1-25.4c8.8,0,17.6,2.4,25.3,6.8
	c24.3,14,32.6,45.2,18.6,69.3C260.5,275.9,243.6,285.6,225.5,285.6C225.5,285.6,225.5,285.6,225.5,285.6z M171.8,211.2
	c-0.6,0-1.2-0.2-1.7-0.5L129.1,187c-0.8-0.5-1.4-1.3-1.6-2.1c-0.2-1-0.1-1.8,0.4-2.5l3.5-6c0.5-0.8,1.3-1.4,2.1-1.6
	c0.3-0.1,0.6-0.1,0.9-0.1c0.6,0,1.2,0.1,1.7,0.4l41,23.8c0.8,0.5,1.4,1.3,1.6,2.1c0.2,1,0.1,1.8-0.4,2.5l-3.5,6
	c-0.5,0.8-1.2,1.4-2,1.5C172.4,211.2,172.1,211.2,171.8,211.2z M81.6,202.5c-8.9,0-17.6-2.4-25.3-6.8c-24.3-14-32.6-45.2-18.6-69.3
	c9.1-15.6,25.9-25.4,44-25.4c8.9,0,17.7,2.4,25.4,6.8c24.3,14,32.6,45.2,18.6,69.3C116.6,192.8,99.8,202.5,81.6,202.5L81.6,202.5z
	 M83,117.5l-1.4,0c-5.9,0-11.8,1.5-17,4.4c-5.3,3-9.7,7.4-12.8,12.7c-4.6,7.9-5.8,17.1-3.4,26c2.4,8.8,8.1,16.2,16,20.8
	c5.2,3,11.2,4.6,17.1,4.6c5.9,0,11.8-1.5,17-4.4c5.3-3,9.7-7.4,12.8-12.7c4.6-7.9,5.8-17.1,3.4-26s-8-16.3-15.9-20.8
	C93.9,119.3,88.5,117.7,83,117.5L83,117.5z M316.7,128.4c-0.6,0-1.2-0.2-1.7-0.5l-40.9-23.8c-0.8-0.5-1.4-1.3-1.6-2.1
	c-0.1-0.4-0.2-1.6,0.4-2.5l3.5-6c0.5-0.8,1.3-1.4,2.1-1.6c0.3-0.1,0.6-0.1,0.9-0.1c0.6,0,1.2,0.1,1.7,0.4l41,23.8
	c0.8,0.5,1.4,1.3,1.6,2.1c0.2,1,0.1,1.8-0.4,2.5l-3.5,6c-0.5,0.8-1.2,1.4-2,1.5C317.3,128.4,317,128.4,316.7,128.4z M395.3,451.5
	c-7.2,0-14.4-0.2-21.6-0.7c-0.1,0-0.2,0-0.3,0c-0.2,0-0.4,0-0.6-0.1c-5.9-0.4-11.7-0.9-17.4-1.5c-0.1,0-0.2,0-0.3,0
	c-0.3,0-0.6-0.1-0.8-0.1l-0.1,0c-22-2.6-58.9-9.1-58.9-24.6v-27h0.2c0,0,0-0.1,0-0.1c-7.4-3.8-11.2-8.2-11.2-13.1v-27h0.2
	c1.2-6,8.3-10.7,21.7-14.3v-25.3c-14.5-4.6-21.9-10.4-21.9-17.3v-27h0.2c4.5-20.8,83.6-21.9,99.7-21.9s95.2,1.1,99.7,21.9h0.2
	l0.1,1.4v25.5c0,0.8-0.1,1.6-0.3,2.4c13.6,3.6,20.8,8.3,22,14.4h0.2l0,1.4v25.5c0,6.9-7.4,12.7-21.9,17.3v22.8
	c0,0.8-0.1,1.7-0.3,2.5c6.6,3,10.2,6.5,11.1,10.7h0.2l0.1,1.4v25.5c0,15.5-36.9,22-58.9,24.6l-0.1,0c-0.2,0.1-0.5,0.1-0.8,0.1
	c-0.1,0-0.2,0-0.3,0c-5.8,0.6-11.6,1.2-17.4,1.5c-0.1,0-0.3,0.1-0.6,0.1c-0.1,0-0.2,0-0.3,0C409.5,451.3,402.2,451.5,395.3,451.5
	L395.3,451.5z M378.5,441c3.9,0.2,7.9,0.3,11.8,0.3v-15.4l-1.6,0c-3.4-0.1-6.8-0.2-10.2-0.3V441z M400.4,441.4
	c3.9-0.1,7.9-0.2,11.8-0.3v-15.4c-3.1,0.1-6.3,0.2-9.6,0.3c-0.7,0-1.5,0-2.2,0V441.4z M360.2,439.7c2.7,0.3,5.4,0.5,8.1,0.7V425
	c-2.7-0.2-5.4-0.4-8.1-0.7V439.7z M422.3,440.4c2.7-0.2,5.4-0.4,8.1-0.7v-15.3c-2.7,0.2-5.4,0.5-8.1,0.7V440.4z M342,437.2
	c2.7,0.5,5.4,0.9,8.1,1.2v-15.2c-2.8-0.3-5.5-0.7-8.1-1.1V437.2z M440.5,438.5c2.8-0.4,5.5-0.8,8.1-1.2v-15.1
	c-2.7,0.4-5.4,0.8-8.1,1.1V438.5z M323.7,433.2c2.7,0.7,5.4,1.4,8.1,2v-14.9c-2.8-0.6-5.5-1.2-8.1-1.8V433.2z M458.8,435.3
	c2.9-0.6,5.6-1.3,8.1-2v-14.7c-2.7,0.7-5.4,1.3-8.1,1.9V435.3z M305.4,424.5c0,0.6,1.5,2.6,8.1,5.3v-14.4c-3.1-1.1-5.8-2.3-8.1-3.6
	V424.5z M477,429.9c6.6-2.7,8.1-4.7,8.1-5.3v-12.6c-2.3,1.3-5,2.4-8.1,3.6V429.9z M310.7,403c2.3,1.1,5.5,2.4,9.8,3.7
	c8.7,2.7,27.7,7.4,58.4,8.7c1.3,0.1,2.6,0.1,4,0.2c1.1,0,2.2,0.1,3.3,0.1c3.5,0.1,6.4,0.1,9.2,0.1c2.7,0,5.7,0,9.2-0.1
	c1.1,0,2.2-0.1,3.3-0.1c1.3,0,2.6-0.1,3.9-0.2c30.7-1.4,49.8-6,58.4-8.7c10.4-3.2,14.1-6,14.9-7.4c-0.5-0.6-2.2-2.3-7.7-4.3
	c0,0-0.1,0-0.1,0.1c-0.1,0.1-0.3,0.2-0.4,0.2c-0.4,0.3-0.8,0.5-1.2,0.8l-0.2,0.1c-0.3,0.2-0.5,0.3-0.8,0.5
	c-6.2,3.4-15.2,6.4-26.9,8.8c-7.5,1.5-15.1,2.7-22.6,3.6c-0.1,0-0.3,0.1-0.5,0.1h-0.1c-5.9,0.7-11.9,1.2-17.8,1.6l-0.1,0l-0.4,0
	c-5.2,0.3-10.4,0.5-15.6,0.6c-2.1,0-4.2,0.1-6.2,0.1c-1.5,0-3.1,0-4.6,0c-5.7-0.1-11.4-0.3-17-0.6l-0.1,0l-0.3-0.1
	c-18.5-1.1-35.3-3.5-48.8-6.9l-0.4-0.1c-0.5-0.1-0.9-0.2-1.4-0.4C311.4,403.2,311,403.1,310.7,403z M367.5,400.9
	c1.5,0.1,3,0.1,4.6,0.2l0.6,0c1.6,0.1,3.3,0.1,5,0.1l1,0c0.2,0,0.4,0,0.7,0v-15.4l-1.6,0c-3.4-0.1-6.8-0.2-10.1-0.3V400.9z
	 M389.4,401.2c0.8,0,1.7,0,2.5,0l1.6,0c2.5-0.1,5.1-0.1,7.7-0.3v-15.4c-3.1,0.1-6.3,0.2-9.6,0.3l-2.2,0V401.2z M411.3,400.2l0.9-0.1
	c2.4-0.2,4.8-0.4,7.2-0.6v-15.3c-2.7,0.2-5.4,0.5-8.1,0.7V400.2z M349.9,399.6c2.5,0.2,5,0.5,7.5,0.6v-15.3
	c-2.7-0.2-5.4-0.4-8.1-0.7v15.3L349.9,399.6z M429.6,398.3c2.8-0.4,5.5-0.8,8.1-1.2V382c-2.7,0.4-5.4,0.8-8.1,1.1V398.3z M331,397.1
	c2.7,0.5,5.4,0.9,8.1,1.2v-15.2c-2.7-0.3-5.4-0.7-8.1-1.1V397.1z M313.4,393.3c2.3,0.6,4.8,1.3,7.5,1.8v-14.9
	c-2.9-0.6-5.6-1.2-8.1-1.8v14.7C312.8,393.1,313.4,393.3,313.4,393.3z M447.8,395.1c2.9-0.6,5.6-1.3,8.1-2v-14.7
	c-2.7,0.7-5.4,1.3-8.1,1.9V395.1z M302.5,389.6l0.2,0.1v-14.3c-3.1-1.1-5.8-2.3-8.1-3.6v12.7c0,0.5,1.3,2.4,7.3,5L302.5,389.6z
	 M466.1,389.6c3.1-1.3,5.5-2.7,7-4l1.1-0.9c0-0.1,0.1-0.2,0.1-0.3l0-12.6c-2.3,1.3-5,2.4-8.1,3.6V389.6z M294.6,359.2
	c0.7,1.2,4.1,4.1,14.9,7.4c8.6,2.7,27.7,7.4,58.4,8.7l0.6,0c1.1,0,2.2,0.1,3.3,0.1c1.1,0,2.2,0.1,3.3,0.1c3.5,0.1,6.4,0.1,9.2,0.1
	c2.4,0,4.7,0,7-0.1c0,0,2.1,0,2.7-0.1c0.5,0,2.5-0.1,2.5-0.1c21.7-0.7,42.4-3.4,57.8-7.5c-8.1,1.1-16.8,2-25.8,2.5l-0.1,0l-0.3,0
	c0,0-0.1,0-0.1,0c-4.8,0.3-9.4,0.5-14,0.6c-2.5,0.1-5.1,0.1-7.6,0.1c-2.3,0-4.6,0-6.9-0.1c-4.9-0.1-9.9-0.3-15-0.6l-0.1,0l-0.3,0
	c-15.1-0.9-29.5-2.7-41.5-5.3c-1-0.2-1.9-0.4-2.9-0.6l-0.9-0.2c-13.9-3.2-23.5-7.2-28.5-12C298.4,355.5,295.3,358.4,294.6,359.2z
	 M389.4,360.7c2.4,0.1,4.8,0.2,7.1,0.3l0.8,0c1.3,0,2.6,0,3.9,0.1v-15.4l-1.6,0c-3.4-0.1-6.8-0.2-10.1-0.3V360.7z M411.3,361
	c4.1-0.1,8-0.2,11.8-0.3v-15.4c-3.1,0.1-6.3,0.2-9.6,0.3l-2.2,0V361z M371.6,359.4c2.1,0.2,4.4,0.4,6.8,0.6l0.9,0.1v-15.4
	c-2.7-0.2-5.4-0.4-8.1-0.7v15.3L371.6,359.4z M433.2,360.1c0,0,0.1,0,0.1,0c0.8-0.1,1.7-0.1,2.5-0.2l0.4,0c1.7-0.1,3.5-0.3,5.1-0.5
	v-15.3c-2.7,0.2-5.4,0.5-8.1,0.7V360.1z M352.9,356.9c1,0.2,2,0.3,3,0.5c1.7,0.3,3.4,0.5,5.1,0.8V343c-2.8-0.3-5.5-0.7-8.1-1.1
	V356.9z M451.5,358.2c0.4-0.1,0.8-0.1,1.2-0.2c2.3-0.3,4.6-0.7,6.9-1.1v-15.1c-2.7,0.4-5.4,0.8-8.1,1.1V358.2z M469.7,355
	c2.5-0.6,5.1-1.2,7.6-1.9l0.5-0.2v-14.7c-2.7,0.7-5.4,1.3-8.1,1.9V355z M334.6,352.9c2.7,0.8,5.4,1.4,8.1,2.1v-14.9
	c-2.8-0.6-5.5-1.2-8.1-1.8V352.9z M488,349.5c6.6-2.7,8.1-4.7,8.1-5.3v-12.6c-2.3,1.3-5,2.4-8.1,3.6V349.5z M316.5,344.3
	c0.4,0.7,2.1,2.6,8,5.1v-14.2c-3.1-1.1-5.8-2.3-8.1-3.6v12.5L316.5,344.3z M318.7,321c2.1,1.4,6.1,3.3,12.8,5.4
	c8.7,2.7,27.7,7.4,58.4,8.7l0.5,0c1.1,0,2.3,0.1,3.4,0.1c1.1,0,2.2,0.1,3.3,0.1c3.5,0.1,6.4,0.1,9.2,0.1c2.7,0,5.7,0,9.2-0.1
	c1.1,0,2.2-0.1,3.3-0.1c1.3,0,2.6-0.1,3.9-0.2c30.7-1.4,49.8-6,58.4-8.7c10.8-3.4,14.3-6.2,14.9-7.4c-0.9-1.3-5.6-4.5-19.3-7.5
	c-0.1,0-0.1,0.1-0.2,0.1c-0.4,0.3-0.9,0.5-1.3,0.8l-0.4,0.2c-0.3,0.2-0.5,0.3-0.8,0.5c-0.8,0.4-1.8,0.9-3,1.4
	c-0.2,0.1-0.8,0.4-0.8,0.4c-1,0.4-2,0.9-3,1.2l-0.6,0.2c-1.2,0.5-2.5,0.9-3.9,1.3c-0.3,0.1-1.4,0.4-1.4,0.4
	c-0.8,0.2-1.6,0.5-2.3,0.7c-17.5,5-42.5,8.1-68.6,8.5c-1.9,0-3.8,0-5.7,0c-7.3,0-14.6-0.2-21.9-0.6l-0.2,0c-0.1,0-0.2,0-0.3,0
	c-6.2-0.4-12.2-0.9-17.9-1.5H344l-0.1,0c-8.6-1-16.7-2.3-23.9-3.8C319.5,321.2,319.1,321.1,318.7,321z M389.4,317.2
	c0.8,0,1.7,0,2.5,0l1.2,0c2.7-0.1,5.1-0.1,7.4-0.2c0,0,0.5,0,0.6,0v-15.4c-3.1,0.1-6.3,0.2-9.6,0.3l-2.2,0V317.2z M367.5,316.9
	c3.9,0.2,7.9,0.3,11.8,0.3v-15.4l-1.6,0c-3.4-0.1-6.8-0.2-10.2-0.3V316.9z M411.3,316.3c2.7-0.2,5.4-0.4,8.1-0.7v-15.3
	c-2.7,0.2-5.4,0.5-8.1,0.7V316.3z M349.3,315.6c2.7,0.3,5.4,0.5,8.1,0.7v-15.3c-2.7-0.2-5.4-0.4-8.1-0.7V315.6z M331,313.1
	c2,0.3,4.1,0.7,6.1,1l1.4,0.2c0.2,0,0.4,0,0.6,0.1v-15.2c-2.7-0.3-5.4-0.7-8.1-1.1L331,313.1L331,313.1z M429.6,314.3
	c2.8-0.4,5.5-0.8,8.1-1.3v-15c-2.7,0.4-5.4,0.8-8.1,1.1V314.3z M312.7,309.1c2.7,0.7,5.4,1.4,8.1,2v-14.9c-2.9-0.6-5.6-1.2-8.1-1.8
	V309.1z M447.8,311.1c2.9-0.7,5.7-1.3,8.1-2v-14.7c-2.7,0.7-5.4,1.3-8.1,1.9V311.1z M294.5,300.4c0,0.6,1.5,2.6,8.1,5.3v-14.4
	c-3.1-1.1-5.8-2.3-8.1-3.6V300.4z M466.1,305.6c2.8-1.2,4.9-2.4,6.4-3.5l1.5-1.2c0.2-0.3,0.2-0.5,0.2-0.5v-12.6
	c-2.3,1.3-5,2.4-8.1,3.6V305.6z M294.6,275.2c0.5,1.3,4.2,4.2,14.9,7.5c8.7,2.7,27.7,7.4,58.4,8.7l0.6,0c1.1,0,2.2,0.1,3.3,0.1
	c1.1,0,2.2,0.1,3.3,0.1c3.5,0.1,6.4,0.1,9.2,0.1c4.1,0,8.4-0.1,12.5-0.2c1.3,0,2.6-0.1,3.9-0.2c30.7-1.4,49.8-6,58.4-8.7
	c10.7-3.3,14.4-6.2,14.9-7.5c-0.6-1.4-6.4-4.9-22.1-8.1c-12.3-2.5-34-5.4-67.7-5.4s-55.4,2.9-67.7,5.4
	C301,270.2,295.2,273.7,294.6,275.2z"/>
</svg>
