<?xml version="1.0" encoding="utf-8"?>
<!-- Generator: Adobe Illustrator 22.1.0, SVG Export Plug-In . SVG Version: 6.00 Build 0)  -->
<svg version="1.1" id="Слой_1" xmlns="http://www.w3.org/2000/svg" xmlns:xlink="http://www.w3.org/1999/xlink" x="0px" y="0px"
	 viewBox="0 0 463 512" style="enable-background:new 0 0 463 512;" xml:space="preserve">
<style type="text/css">
	.st0{fill:#A0B0C0;}
</style>
<path class="st0" d="M123.8,126.7c5.8-7.3,12.1-14.1,19.1-20.1l-34.5-34.5c-5.4-5.4-14.2-5.4-19.6,0c-5.4,5.4-5.4,14.2,0,19.6
	L123.8,126.7L123.8,126.7z M236,71.2c0.1,0,0.2,0,0.4,0c4.6,0,9.1,0.3,13.5,0.7V25c0-7.7-6.2-13.9-13.9-13.9s-13.9,6.2-13.9,13.9v47
	c4.4-0.4,8.9-0.7,13.5-0.7C235.8,71.2,235.9,71.2,236,71.2L236,71.2z M348.2,126.7l35-35c5.4-5.4,5.4-14.2,0-19.6
	c-5.4-5.4-14.2-5.4-19.6,0L329,106.6C336,112.6,342.4,119.4,348.2,126.7L348.2,126.7z M89.7,225.1c0-6.7,0.5-13.3,1.3-19.7H41.7
	c-7.6,0-13.9,6.2-13.9,13.9c0,7.7,6.2,13.9,13.9,13.9h48.2C89.8,230.5,89.7,227.8,89.7,225.1L89.7,225.1z M430.3,205.4H381
	c0.8,6.5,1.3,13,1.3,19.7c0,2.7-0.1,5.4-0.2,8h48.2c7.7,0,13.9-6.2,13.9-13.9S437.9,205.4,430.3,205.4L430.3,205.4z M355.5,319.1
	c-5.6,8.3-11.6,15.4-17.3,21.9l25.4,25.4c5.4,5.4,14.2,5.4,19.6,0c5.4-5.4,5.4-14.2,0-19.6L355.5,319.1L355.5,319.1z M88.8,346.8
	c-5.4,5.4-5.4,14.2,0,19.6c5.4,5.4,14.2,5.4,19.6,0l25.4-25.4c-5.7-6.4-11.7-13.6-17.3-21.9L88.8,346.8L88.8,346.8z M363,225.1
	c0-28.8-9.6-55.4-25.7-76.7c-14.2-18.7-33.4-33.4-55.7-42l0.1-0.6l-9.5-2.8c-7.4-2.1-15-3.6-22.8-4.4l-1.1-0.1h0l0,0
	c-3.8-0.4-7.8-0.6-11.9-0.6h-0.6c-4.1,0-8.1,0.3-11.9,0.6l-0.1,0l-1.1,0.1c-7.8,0.8-15.4,2.3-22.8,4.4l-9.2,2.7l0.1,0.6
	c-22.4,8.6-41.8,23.3-56,42.1c-16.1,21.3-25.7,47.9-25.7,76.7c0,20.6,3.6,37.6,9.1,51.6c8.3,21.1,21,35.3,31.3,46.1
	c5.1,5.4,9.6,10,12.7,13.9c3.1,3.9,4.6,7,5.1,9.4c2.2,11.8,2.5,26.7,2.5,30.4v1.1c0,17,13.8,30.8,30.8,30.8h71.3
	c17,0,30.8-13.8,30.8-30.8v-1c0-3.7,0.2-18.6,2.5-30.4c0.3-1.6,1-3.5,2.5-5.8c2.4-4,7.1-8.9,12.8-14.9c8.5-9,19.4-20.3,28-36.4
	C356.9,273,363.1,252.2,363,225.1L363,225.1z M333.9,268.8c-6.8,17.2-17,28.8-26.9,39.2c-4.9,5.2-9.7,10-14,15.4
	c-4.2,5.3-7.9,11.3-9.3,18.7c-2.7,14.5-2.8,30-2.8,34.4c0,0.6,0,0.9,0,1c0,5.1-4.2,9.3-9.3,9.3h-71.3c-2.6,0-4.9-1-6.6-2.7
	c-1.7-1.7-2.7-4-2.7-6.6c0-0.1,0-0.5,0-1.1c0-4.5-0.2-20-2.8-34.4c-0.9-4.9-2.9-9.3-5.3-13.2c-4.3-6.8-9.8-12.4-15.4-18.4
	c-8.6-8.9-17.6-18.6-24.7-31.7c-7-13.2-12.3-29.9-12.3-53.8c0-24,7.9-46,21.4-63.7c13.4-17.7,32.3-31.1,54.1-37.6l2.7-0.8
	c5.3-1.4,10.7-2.4,16.2-3h0l1-0.1c3.3-0.3,6.4-0.5,9.6-0.5l0.6,0.1l0.6,0c3.1,0,6.3,0.2,9.5,0.5h0l1.1,0.1h0
	c5.5,0.6,10.9,1.6,16.2,3l2.7,0.8c21.8,6.5,40.7,19.9,54.1,37.6c13.4,17.7,21.3,39.7,21.3,63.7C341.5,243.3,338.4,257.4,333.9,268.8
	L333.9,268.8z M249.4,98.6L249.4,98.6L249.4,98.6z M222.6,98.6L222.6,98.6C222.6,98.6,222.6,98.6,222.6,98.6L222.6,98.6z
	 M271.4,416.9h-70.7c-7.3,0-13.2,5.9-13.2,13.3c0,7.3,5.9,13.2,13.2,13.2h70.7c7.3,0,13.2-5.9,13.2-13.2
	C284.6,422.8,278.7,416.9,271.4,416.9z M271.4,450.4h-70.7c-7.3,0-13.2,5.9-13.2,13.2c0,7.3,5.9,13.3,13.2,13.3h70.7
	c7.3,0,13.2-5.9,13.2-13.3C284.6,456.3,278.7,450.4,271.4,450.4z M242.2,484.1h-36.4c0,0.4-0.1,0.8-0.1,1.2
	c0,7.3,11.2,13.2,21.6,13.2h17.3c10.4,0,21.6-5.9,21.6-13.2c0-0.4-0.1-0.8-0.1-1.2H242.2L242.2,484.1z M236.3,281.8
	c-3.1,4.5-7,7.6-12.1,9.2c-9.1,2.8-18.7-0.5-24.3-8.1c-0.6-0.8-1.5-1.5-2.4-1.9c-8.6-4.1-13.1-10.8-13.3-20.3c0-1.3-0.4-2.1-1.5-2.9
	c-7.7-5.8-10.1-16.1-5.6-24.7c0.6-1.1,0.5-1.8,0-2.9c-3.6-7.4-2.9-14.5,2-21.2c0.5-0.7,0.9-1.7,0.8-2.4
	c-1.7-10.3,3.4-19.1,13.3-22.6c0.2-0.1,0.4-0.2,0.6-0.3c0-2.4-0.3-4.8,0.1-7.1c0.7-4.5,3.2-7.8,7.1-10.2c1.2-0.7,2.3-1.4,3.4-2.2
	c5.6-4,11.4-7.2,18.2-8.6c5.1-1,9.8-0.5,13.7,3.6c5.7-5.6,12.3-4.6,18.8-2.1c3.9,1.5,7.5,3.6,11.1,5.7c2.2,1.2,4.3,2.7,6.4,4.2
	c5.2,3.7,7.3,8.7,6.4,15c-0.1,0.5-0.2,1-0.3,1.6c0.6,0.3,1.3,0.5,1.9,0.8c8.8,3.4,14,12.6,12.2,21.9c-0.2,1.2,0,1.9,0.7,2.9
	c5,6.6,5.7,13.7,2,21.2c-0.5,1.1-0.6,1.8,0,2.9c4.5,8.6,2.1,19-5.7,24.8c-0.9,0.7-1.3,1.3-1.3,2.6c0.1,9.1-5.1,17-13.5,20.5
	c-0.7,0.3-1.4,0.8-1.9,1.4c-9.4,12.8-26.6,12.9-36.2,0.2C236.8,282.3,236.6,282.2,236.3,281.8z M233,221.8c-0.2-2.7,0.1-5.4,0-8.2
	c-0.2-5.8,0-11.7,0-17.5c0-3.7-2.1-6-5.8-6.5c-2.3-0.3-3.6-1.6-3.5-3.6c0.2-2,1.8-3.3,4.1-3c1.7,0.2,3.4,0.7,5.1,1.1
	c0-5.7,0.1-11.3,0-17c-0.1-3.1-2.8-5.5-6-5.5c-4.4,0.1-8.4,1.7-12.5,3.9c0.7,0.5,1.3,0.8,1.8,1.1c2.4,1.5,4.3,3.5,5.5,6.1
	c0.8,1.7,0.2,3.5-1.4,4.3c-1.5,0.9-3.3,0.4-4.4-1.2c-0.3-0.5-0.6-1-0.9-1.4c-2.3-3.3-6.6-4.5-10.3-2.8c-3.6,1.7-5.6,5.8-4.6,9.6
	c0.3,1.2,0.8,1.7,2.1,1.9c9.2,1.6,16.1,9.6,16.3,18.7c0,2.2-1.2,3.8-3.2,3.9c-1.9,0.1-3.3-1.3-3.5-3.5c-0.3-5.6-3-9.7-8.3-11.8
	c-4.9-2-9.6-1.1-13.5,2.6c-4.1,3.8-5.2,8.6-3.3,14c0.6,1.7,0.3,3.1-1.1,4.4c-4.2,3.9-5.6,8.7-3.6,14.1c1.9,5.4,6,8.2,11.7,8.6
	c2.5,0.2,3.9,1.5,3.8,3.4c-0.1,2.1-1.7,3.2-4.2,3.1c-4-0.1-7.5-1.5-10.9-3.9c-0.3,0.8-0.6,1.5-0.7,2.2c-1.4,5.9,1.3,11.8,6.8,14.7
	c2.2,1.1,2.7,2.1,2.3,4.3c-1.2,7.9,3,14.8,10.6,17.4c1,0.3,2.1,1.2,2.7,2.1c4,6.3,10.6,9.2,17.4,7.4c6.9-1.9,11.3-7.7,11.3-15.3
	c0.1-12,0-24,0-36c0-2.6,0-5.2,0-7.8 M239.7,224.4c0,9.7,0,19.4,0,29c3.1-1.5,6.2-3.2,9.3-4.5c1.9-0.8,3.7,0.4,4.3,2.2
	c0.5,1.7-0.4,3.4-2.3,4.1c-0.2,0.1-0.5,0.2-0.7,0.2c-6.7,2.3-10.9,8.3-10.6,15.2c0.3,6.6,4.9,12.3,11.4,14.1c6.6,1.8,13.4-1,17-7
	c0.8-1.3,1.8-2.1,3.2-2.6c7-2.3,11.4-9.2,10.5-16.4c-0.5-3.5-0.3-3.7,2.7-5.4c5.9-3.3,8.4-10.8,5.4-16.5c-0.6,0.4-1.1,0.7-1.7,1.1
	c-3,1.8-6.2,2.7-9.7,2.7c-2.1,0-3.6-1.3-3.6-3.2c0-1.8,1.3-3.1,3.3-3.3c0.5-0.1,1-0.1,1.5-0.1c5.3-0.7,9-3.6,10.7-8.6
	c1.8-5,0.7-9.7-3.1-13.4c-1.8-1.8-2.2-3.4-1.4-5.8c2.1-6.4-1.3-13.2-7.5-15.7c-6.2-2.5-13.4,0.1-16.3,6.2c-0.9,1.8-1.1,4-1.5,6.1
	c-0.3,1.8-1.5,3-3.2,3.1c-1.7,0.1-3.2-1.2-3.4-3c-0.1-0.7,0-1.4,0.1-2c1-9.2,7.3-15.9,16.4-17.6c0.7-0.1,1.5-0.9,1.7-1.5
	c1.9-5.7-3.2-11.5-9-10.6c-2.9,0.4-5,2.1-6.4,4.6c-1,1.8-3,2.3-4.6,1.4c-1.6-0.9-2.1-2.8-1.1-4.5c0.8-1.4,1.7-2.7,2.9-3.9
	c1.2-1.2,2.7-2.1,4.1-3.2c-2.8-1.8-7.1-3.3-10.6-3.7c-4.8-0.5-7.6,1.9-7.6,6.8c0,7.7,0,15.4,0,23.1c0,0.6,0,1.2,0.1,1.7
	c2-0.4,3.9-0.9,5.7-1c1.9-0.2,3.4,1.3,3.5,3.1c0.1,1.7-1.2,3.2-3,3.4c-2.3,0.3-3.9,1-4.9,2.1c-0.9,1-1.2,2.1-1.4,5.2
	c-0.2,2.5-0.2,5.8,0,9.8C239.7,218.8,239.7,221.6,239.7,224.4z M203.4,252.3c0.3-1.5,0.5-2.8,0.8-4.1c2.2-8.2,9.7-14.1,18.1-14.4
	c2.4-0.1,4,1.1,4.1,3.1c0.1,2-1.3,3.3-3.7,3.5c-6.8,0.5-12,5.4-12.5,11.8c-0.1,1.3,0.2,2,1.4,2.6c6.3,3.6,9.7,9,10.2,16.3
	c0.2,2.5-1.1,4.1-3.2,4.1c-2,0-3.3-1.4-3.4-3.8c-0.4-6.8-5.3-11.8-12.1-12.4c-2.9-0.3-4.2-1.3-4.1-3.4
	C199,253.5,200.4,252.5,203.4,252.3z M217.1,220.2 M217.3,213.8 M225.4,213.4c-0.1,0.4-0.7,1.4-1,1.7c-2.2,1.8-6,4.6-6.5,4.9
	c-1.9,1.1-2.8,1.3-2.8,1.3c-0.2,0-0.7,0.1-1.1,0.5c-0.3,0.3-0.6,0.7-0.8,1.3c-2,6.1-7.1,10-13.4,10.4c-2.3,0.1-4-1.1-4.1-3.1
	c-0.1-1.9,1.3-3.3,3.5-3.5c0.4,0,0.9-0.1,1.3-0.2c2.9-0.6,5-2.3,6.2-5.2c-0.8-0.2-1.4-0.4-2.1-0.6c-7.9-2.5-13.6-10.1-13.6-18.2
	c0-2.3,1.2-3.7,3.2-3.8c1.9-0.1,3.4,1.3,3.4,3.4c-0.1,8.8,9.4,15.8,18.4,11.6c0.3-0.2,0.8-0.5,1.3-0.9c1.2-1,4-4.1,6.1-3.1
	C225,210.6,225.6,211.8,225.4,213.4z M272.2,255c0.7,0,1.2,0,1.8,0.1c1.6,0.2,2.8,1.6,2.9,3.2c0,1.6-1.1,3-2.7,3.3
	c-0.5,0.1-1.1,0.1-1.7,0.2c-6.5,0.6-11.5,5.7-11.9,12.2c-0.2,2.7-1.5,4.1-3.6,3.9c-2-0.2-3.2-1.8-3-4.3c0.6-7.1,4-12.6,10.2-16.1
	c1.1-0.6,1.4-1.3,1.3-2.5c-0.4-6.1-5.5-11.4-11.7-11.9c-3.3-0.3-4.7-1.4-4.5-3.7c0.2-2.3,1.8-3.2,5.1-3c8.9,0.7,16.3,7.8,17.7,17
	C272.1,254,272.2,254.4,272.2,255z M244.2,216.7c-0.2-0.1-1.3-0.4-1.7-1.4c0-0.1-0.2-0.5-0.1-1.1c0.2-1.1,0.8-2.5,1.7-3
	c1-0.5,2.5-0.1,3.6,0.3c1,0.4,1.7,1.5,2.7,2.1c9.2,5,19.1-0.4,19.9-10.8c0.1-1,0.7-2.4,1.6-2.9c0.8-0.5,2.3-0.5,3.3-0.1
	c1.4,0.5,1.8,1.9,1.7,3.4c-0.5,7.6-4.1,13.3-10.8,16.9c-1.5,0.8-3.1,1.2-4.6,1.8c0.8,2.9,3.5,5,7.2,5.3c2,0.2,3.2,1.1,3.5,2.7
	c0.1,0.8,0,1.6-0.4,2.2c0,0-0.7,1.2-2.7,1.7c-2.6,0.6-12.6-3.9-14-10c-0.6-2.4-3.4-2.1-5.7-3.4C247.4,219.4,245.8,217.8,244.2,216.7
	z M252.7,221"/>
</svg>
